# xmcd
#
# Track frame offsets: 
#        150
#        12586
#        27623
#        40837
#        60155
#        75176
#        89404
#        109386
#        129264
#        149847
#        163705
#        182829
#
# Disc length: 2729 seconds
#
# Revision: 0
# Processed by: cddbd v1.5.1PL0 Copyright (c) Steve Scherf et al.
# Submitted via: ExactAudioCopy v0.95a5
#
DISCID=9e0aa70c
DTITLE=Carrie Underwood - Live In Little Rock
DYEAR=1900
DGENRE=Country
TTITLE0=Can't Get Enough
TTITLE1=Lesson In Leavin'
TTITLE2=Hit Me With Your Best Shot
TTITLE3=Goodbye Earl
TTITLE4=Bye Bye
TTITLE5=Romeo Boy
TTITLE6=455 Rocket
TTITLE7=Show Me Heaven
TTITLE8=Proud Mary
TTITLE9=If I Fall You're Going Down With Me
TTITLE10=Be Myself
TTITLE11=Respect
EXTD=
EXTT0=
EXTT1=
EXTT2=
EXTT3=
EXTT4=
EXTT5=
EXTT6=
EXTT7=
EXTT8=
EXTT9=
EXTT10=
EXTT11=
PLAYORDER=
